<svg width="500" height="500" viewBox="0 0 132.292 132.292" xml:space="preserve" xmlns="http://www.w3.org/2000/svg"><defs><clipPath clipPathUnits="userSpaceOnUse" id="d"/><clipPath clipPathUnits="userSpaceOnUse" id="c"/><clipPath clipPathUnits="userSpaceOnUse" id="b"/><clipPath clipPathUnits="userSpaceOnUse" id="a"/><filter style="color-interpolation-filters:sRGB" id="f" x="-.064" y="-.335" width="1.129" height="1.67"><feGaussianBlur stdDeviation="1.608"/></filter><filter style="color-interpolation-filters:sRGB" id="e" x="-.091" y="-.132" width="1.183" height="1.264"><feGaussianBlur stdDeviation=".616"/></filter></defs><path style="fill:#d4aa00;fill-opacity:1;stroke:none;stroke-width:.975803;stroke-linejoin:bevel;stroke-miterlimit:12.5;stroke-opacity:1;paint-order:markers stroke fill" transform="matrix(.16001 -.75712 .7789 .15553 -14.022 84.032)" clip-path="url(#a)" d="M61.974 77.979 28.07 84.945 5.085 59.065l10.92-32.845 33.904-6.966 22.985 25.88Z"/><path style="fill:#fff;fill-opacity:1;stroke:none;stroke-width:1.05181;stroke-linejoin:bevel;stroke-miterlimit:12.5;stroke-opacity:1;paint-order:markers stroke fill" transform="matrix(.14857 -.70182 .72322 .14417 -10.674 82.468)" clip-path="url(#b)" d="M61.974 77.979 28.07 84.945 5.085 59.065l10.92-32.845 33.904-6.966 22.985 25.88Z"/><path style="fill:#d4aa00;fill-opacity:1;stroke:none;stroke-width:1.1746;stroke-linejoin:bevel;stroke-miterlimit:12.5;stroke-opacity:1;paint-order:markers stroke fill" transform="matrix(.13285 -.62938 .64667 .1293 -6.073 80.42)" clip-path="url(#c)" d="M61.974 77.979 28.07 84.945 5.085 59.065l10.92-32.845 33.904-6.966 22.985 25.88Z"/><path style="fill:#fff;fill-opacity:1;stroke:none;stroke-width:1.22329;stroke-linejoin:bevel;stroke-miterlimit:12.5;stroke-opacity:1;paint-order:markers stroke fill" transform="matrix(.12745 -.60487 .62038 .12426 -4.493 79.726)" clip-path="url(#d)" d="M61.974 77.979 28.07 84.945 5.085 59.065l10.92-32.845 33.904-6.966 22.985 25.88Z"/><circle style="fill:#fff;stroke:#000;stroke-width:.264583" cx="52.37" cy="92.22" r=".002"/><text xml:space="preserve" style="font-size:16px;line-height:0;font-family:Pristina;-inkscape-font-specification:Pristina;letter-spacing:.79375px;word-spacing:0;text-orientation:upright;fill:#f60;stroke:none;stroke-width:.765;stroke-linejoin:bevel;stroke-miterlimit:12.5;paint-order:markers stroke fill" x="41.059" y="150.42" transform="translate(6.364 -82.143)"><tspan style="font-style:normal;font-variant:normal;font-weight:400;font-stretch:normal;font-size:16px;font-family:Audiowide;-inkscape-font-specification:Audiowide;fill:#1a1a1a;fill-opacity:1;stroke:none;stroke-width:.765;stroke-opacity:1" x="41.059" y="150.42">KIMBA</tspan></text><text xml:space="preserve" style="font-size:16px;line-height:0;font-family:Pristina;-inkscape-font-specification:Pristina;letter-spacing:.79375px;word-spacing:0;text-orientation:upright;opacity:.5;fill:#1a1a1a;fill-opacity:1;stroke:none;stroke-width:.765;stroke-linejoin:bevel;stroke-miterlimit:12.5;paint-order:markers stroke fill;filter:url(#e)" x="103.732" y="151.476" transform="translate(6.364 -82.143)"><tspan style="font-style:normal;font-variant:normal;font-weight:400;font-stretch:normal;font-size:16px;font-family:Audiowide;-inkscape-font-specification:Audiowide;fill:#1a1a1a;fill-opacity:1;stroke:none;stroke-width:.765;stroke-opacity:1" x="103.732" y="151.476">IA</tspan></text><text xml:space="preserve" style="font-size:16px;line-height:0;font-family:Pristina;-inkscape-font-specification:Pristina;letter-spacing:.79375px;word-spacing:0;text-orientation:upright;fill:#1a1a1a;fill-opacity:1;stroke:none;stroke-width:.765;stroke-linejoin:bevel;stroke-miterlimit:12.5;paint-order:markers stroke fill" x="103.203" y="150.418" transform="translate(6.364 -82.143)"><tspan style="font-style:normal;font-variant:normal;font-weight:400;font-stretch:normal;font-size:16px;font-family:Audiowide;-inkscape-font-specification:Audiowide;fill:#1a1a1a;fill-opacity:1;stroke:none;stroke-width:.765;stroke-opacity:1" x="103.203" y="150.418">IA</tspan></text><text xml:space="preserve" style="font-size:16px;line-height:0;font-family:Pristina;-inkscape-font-specification:Pristina;letter-spacing:.79375px;word-spacing:0;text-orientation:upright;opacity:.5;fill:#f60;stroke:none;stroke-width:.765;stroke-linejoin:bevel;stroke-miterlimit:12.5;paint-order:markers stroke fill;filter:url(#f)" x="41.588" y="151.478" transform="translate(6.364 -82.143)"><tspan style="font-style:normal;font-variant:normal;font-weight:400;font-stretch:normal;font-size:16px;font-family:Audiowide;-inkscape-font-specification:Audiowide;fill:#1a1a1a;fill-opacity:1;stroke:none;stroke-width:.765;stroke-opacity:1" x="41.588" y="151.478">KIMBA</tspan></text><path style="fill:#04a;fill-opacity:1;stroke:none;stroke-width:1.2;stroke-linejoin:bevel;stroke-miterlimit:12.5;stroke-opacity:1;paint-order:markers stroke fill" d="m22.798 70.162 8.716-20 8.974 19.808z"/><path style="fill:#d4aa00;fill-opacity:1;stroke:none;stroke-width:1.19999;stroke-linejoin:bevel;stroke-miterlimit:12.5;stroke-opacity:1;paint-order:markers stroke fill" d="m29.977 65.852 2.092-4.8 2.154 4.754z"/><path style="fill:#d4aa00;stroke-width:1.19999;stroke-linejoin:bevel;stroke-miterlimit:12.5;paint-order:markers stroke fill" d="m28.443 62.628-.282-.16-2.44 5.496.283.16zm2.663-6.004-.281-.16-2.44 5.496.283.16zM24.873 67.6a1.061 1.2 0 0 0 .472 1.61 1.061 1.2 0 0 0 1.425-.534 1.061 1.2 0 0 0-.473-1.61 1.061 1.2 0 0 0-1.424.534zm2.633-5.935a1.061 1.2 0 0 0 .473 1.61 1.061 1.2 0 0 0 1.424-.534 1.061 1.2 0 0 0-.472-1.61 1.061 1.2 0 0 0-1.425.534zm2.636-5.94a1.061 1.2 0 0 0 .473 1.61 1.061 1.2 0 0 0 1.424-.535 1.061 1.2 0 0 0-.472-1.61 1.061 1.2 0 0 0-1.425.534z"/><rect style="fill:#04a;stroke:none;stroke-width:1.19998;stroke-linejoin:bevel;stroke-miterlimit:12.5;paint-order:markers stroke fill" width="4.495" height="19.153" x="38.302" y="50.826" ry="2.541" rx="0"/><path style="fill:#d4aa00;stroke-width:1.19999;stroke-linejoin:bevel;stroke-miterlimit:12.5;paint-order:markers stroke fill" d="M40.392 60.552h.316V66.7h-.316zm0-6.717h.316v6.149h-.316zm1.22 12.97a1.061 1.2 0 0 1-1.062 1.2 1.061 1.2 0 0 1-1.062-1.2 1.061 1.2 0 0 1 1.062-1.2 1.061 1.2 0 0 1 1.061 1.2zm0-6.64a1.061 1.2 0 0 1-1.062 1.2 1.061 1.2 0 0 1-1.062-1.2 1.061 1.2 0 0 1 1.062-1.2 1.061 1.2 0 0 1 1.061 1.2zm0-6.646a1.061 1.2 0 0 1-1.062 1.2 1.061 1.2 0 0 1-1.062-1.2 1.061 1.2 0 0 1 1.062-1.2 1.061 1.2 0 0 1 1.061 1.2z"/></svg>